HIERARCHY
ROOT joint_0
{
	OFFSET 0.000000 0.000000 0.000000
	CHANNELS 6 Xposition Yposition Zposition Zrotation Yrotation Xrotation 
	JOINT joint_1
	{
		OFFSET 17.107422 0.519409 105.452026
		CHANNELS 3 Zrotation Yrotation Xrotation
		JOINT joint_2
		{
			OFFSET 6.110352 -1.434082 97.381958
			CHANNELS 3 Zrotation Yrotation Xrotation
			JOINT joint_3
			{
				OFFSET 6.305908 -1.739990 97.255005
				CHANNELS 3 Zrotation Yrotation Xrotation
				JOINT joint_4
				{
					OFFSET 22.074707 -0.492493 131.077026
					CHANNELS 3 Zrotation Yrotation Xrotation
					JOINT joint_5
					{
						OFFSET 34.162842 2.248718 78.700928
						CHANNELS 3 Zrotation Yrotation Xrotation
						End Site
						{
							OFFSET 0.000000 0.000000 0.000000
						}
					}
				}
				JOINT joint_6
				{
					OFFSET 17.059082 -28.836914 72.664062
					CHANNELS 3 Zrotation Yrotation Xrotation
					JOINT joint_7
					{
						OFFSET 22.639893 -134.803833 -24.691040
						CHANNELS 3 Zrotation Yrotation Xrotation
						JOINT joint_8
						{
							OFFSET 7.301758 -32.590759 -269.966064
							CHANNELS 3 Zrotation Yrotation Xrotation
							JOINT joint_9
							{
								OFFSET 35.581055 -8.517151 -242.326965
								CHANNELS 3 Zrotation Yrotation Xrotation
								End Site
								{
									OFFSET 0.000000 0.000000 0.000000
								}
							}
						}
					}
				}
				JOINT joint_10
				{
					OFFSET 7.819092 28.232056 74.432983
					CHANNELS 3 Zrotation Yrotation Xrotation
					JOINT joint_11
					{
						OFFSET -23.457031 135.063843 -22.406982
						CHANNELS 3 Zrotation Yrotation Xrotation
						JOINT joint_12
						{
							OFFSET 17.896973 48.138672 -267.131958
							CHANNELS 3 Zrotation Yrotation Xrotation
							JOINT joint_13
							{
								OFFSET 46.526367 17.567627 -239.975037
								CHANNELS 3 Zrotation Yrotation Xrotation
								End Site
								{
									OFFSET 0.000000 0.000000 0.000000
								}
							}
						}
					}
				}
			}
		}
	}
	JOINT joint_14
	{
		OFFSET 10.553467 -100.140320 -126.306030
		CHANNELS 3 Zrotation Yrotation Xrotation
		JOINT joint_15
		{
			OFFSET -52.094238 -9.565002 -436.052002
			CHANNELS 3 Zrotation Yrotation Xrotation
			JOINT joint_16
			{
				OFFSET -55.682617 -11.310120 -462.482971
				CHANNELS 3 Zrotation Yrotation Xrotation
				JOINT joint_17
				{
					OFFSET 179.119385 -5.942566 -84.087004
					CHANNELS 3 Zrotation Yrotation Xrotation
					End Site
					{
						OFFSET 0.000000 0.000000 0.000000
					}
				}
			}
		}
	}
	JOINT joint_18
	{
		OFFSET -22.235352 101.620483 -123.583984
		CHANNELS 3 Zrotation Yrotation Xrotation
		JOINT joint_19
		{
			OFFSET -38.118408 12.306396 -437.429016
			CHANNELS 3 Zrotation Yrotation Xrotation
			JOINT joint_20
			{
				OFFSET -51.789307 8.010498 -463.006004
				CHANNELS 3 Zrotation Yrotation Xrotation
				JOINT joint_21
				{
					OFFSET 170.088135 59.632324 -83.078003
					CHANNELS 3 Zrotation Yrotation Xrotation
					End Site
					{
						OFFSET 0.000000 0.000000 0.000000
					}
				}
			}
		}
	}
}
MOTION
Frames: 8
Frame Time: 0.016667
-3062.885986 873.934631 1116.791992 0.724232 4.910343 -1.765602 0.184571 4.660591 3.328896 0.246596 -0.916878 -0.765194 0.175504 0.782905 0.490638 0.586954 -3.208448 -0.288885 0.000000 0.000000 0.000000 -17.230658 23.056709 -24.292504 -9.764449 16.903602 1.552333 -170.728452 -48.442504 -170.191555 0.000000 0.000000 0.000000 6.577405 33.792541 -2.602360 8.682426 11.127987 6.411080 172.612816 -75.703676 -159.547721 0.000000 0.000000 0.000000 -0.115186 -10.494358 -1.619955 -1.253713 23.439826 3.499307 -0.015520 -8.792256 -0.300420 0.000000 0.000000 0.000000 -1.396227 1.227423 4.386648 -0.887889 0.791223 -1.356786 -1.208962 -3.863370 0.769276 0.000000 0.000000 0.000000 
-3053.793457 869.608215 1116.428955 1.174653 5.176341 -1.475139 0.123731 4.836328 3.072681 0.087224 -0.918481 -0.781103 -0.014589 0.792303 0.482517 0.490037 -2.499721 -0.012697 0.000000 0.000000 0.000000 -17.589377 22.861023 -24.084871 -10.441035 16.630958 0.397592 -170.794318 -47.445805 -169.532960 0.000000 0.000000 0.000000 7.022761 34.020519 -1.854233 8.507388 10.701848 5.617467 172.385584 -75.510566 -158.667287 0.000000 0.000000 0.000000 -0.227974 -12.666176 -1.930145 -1.415505 27.628748 3.897176 0.071095 -9.887298 -0.299124 0.000000 0.000000 0.000000 -1.543058 1.089689 4.401726 -1.003112 1.310058 -1.381694 -1.320767 -3.777110 0.687721 0.000000 0.000000 0.000000 
-3045.328369 865.170166 1116.266968 1.605765 5.371620 -1.192665 0.139402 5.061019 2.769833 -0.024530 -0.931170 -0.741146 -0.174633 0.809353 0.468461 0.416920 -1.819449 0.217523 0.000000 0.000000 0.000000 -17.905117 22.555913 -23.568444 -11.273912 16.160426 -0.761271 -170.882058 -46.438484 -169.008434 0.000000 0.000000 0.000000 7.401452 34.036936 -1.080973 8.413405 10.130442 4.972648 172.165980 -75.417246 -157.916674 0.000000 0.000000 0.000000 -0.479126 -14.584778 -2.191929 -1.637226 30.985556 4.039620 0.012474 -10.768242 -0.353719 0.000000 0.000000 0.000000 -1.689542 0.810978 4.403812 -1.105454 2.156375 -1.370378 -1.417285 -3.706358 0.619720 0.000000 0.000000 0.000000 
-3037.500977 860.824341 1116.453979 2.085267 5.474367 -1.074914 0.183607 5.383468 2.658871 -0.081454 -0.987371 -0.686191 -0.284968 0.869109 0.439325 0.484663 -1.303736 0.147569 0.000000 0.000000 0.000000 -18.294949 21.996393 -22.814208 -11.845260 15.659650 -1.363284 -170.819683 -45.493151 -168.944725 0.000000 0.000000 0.000000 7.899673 33.761754 -0.373682 8.206564 9.392653 4.414898 171.799620 -75.477846 -157.347940 0.000000 0.000000 0.000000 -0.961027 -15.944338 -2.243292 -2.040885 32.849324 3.815193 -0.433272 -11.459799 -0.568120 0.000000 0.000000 0.000000 -1.867051 0.441560 4.568924 -1.213086 3.276987 -1.320943 -1.515249 -3.631715 0.550096 0.000000 0.000000 0.000000 
-3030.336426 856.484680 1116.935059 2.538134 5.522304 -1.111089 0.267641 5.752313 2.728072 -0.056161 -1.058789 -0.641587 -0.319320 0.956352 0.399105 0.637477 -0.893773 -0.088684 0.000000 0.000000 0.000000 -18.723185 21.235368 -21.761116 -12.338871 15.064966 -1.687429 -170.693965 -44.560341 -169.173597 0.000000 0.000000 0.000000 8.403731 33.259252 0.280725 8.013500 8.451796 3.974505 171.350434 -75.669889 -156.954054 0.000000 0.000000 0.000000 -1.589936 -16.992674 -2.080587 -2.569064 33.683712 3.299697 -1.171880 -12.203034 -0.910465 0.000000 0.000000 0.000000 -2.054146 -0.073578 4.867405 -1.302546 4.713342 -1.222470 -1.592471 -3.559531 0.491419 0.000000 0.000000 0.000000 
-3023.602295 851.905762 1117.473022 2.941033 5.447121 -1.158023 0.359628 6.143654 2.771540 0.021722 -1.131123 -0.604446 -0.298800 1.045629 0.358969 0.779102 -0.408179 -0.309738 0.000000 0.000000 0.000000 -18.968625 20.230847 -20.647741 -12.862026 14.453068 -1.984282 -170.718715 -43.848582 -169.311592 0.000000 0.000000 0.000000 8.797031 32.634511 0.915275 7.924573 7.395724 3.618489 170.935318 -75.939505 -156.623024 0.000000 0.000000 0.000000 -2.276475 -17.663741 -1.793329 -3.154282 33.526547 2.428929 -2.098970 -12.596030 -1.324785 0.000000 0.000000 0.000000 -2.234348 -0.565727 5.229757 -1.372325 6.313688 -1.216553 -1.663762 -3.461928 0.427054 0.000000 0.000000 0.000000 
-3017.240479 846.935608 1118.026001 3.289649 5.185352 -1.113316 0.418113 6.569676 2.642749 0.123880 -1.196105 -0.573658 -0.223970 1.119699 0.329177 0.843114 0.268256 -0.406887 0.000000 0.000000 0.000000 -18.888174 18.955984 -19.591203 -13.382479 13.873388 -2.378142 -171.055136 -43.530367 -169.190970 0.000000 0.000000 0.000000 9.014294 31.896731 1.564182 7.954618 6.299075 3.295309 170.629994 -76.247774 -156.240590 0.000000 0.000000 0.000000 -3.044664 -17.845547 -1.418656 -3.819345 32.041189 0.988938 -3.248185 -12.103034 -1.811900 0.000000 0.000000 0.000000 -2.403397 -0.891360 5.602126 -1.436288 7.937984 -1.390655 -1.753716 -3.273022 0.322428 0.000000 0.000000 0.000000 
-3011.344971 841.665710 1118.686035 3.617434 4.751688 -1.005078 0.436223 7.067962 2.371015 0.245904 -1.276330 -0.528772 -0.084752 1.188080 0.306244 0.855191 1.072983 -0.450407 0.000000 0.000000 0.000000 -18.597998 17.422394 -18.465955 -13.772622 13.286271 -2.829076 -171.658471 -43.534062 -168.977900 0.000000 0.000000 0.000000 9.095457 30.990203 2.192174 8.046296 5.141168 3.030125 170.397046 -76.625083 -155.834059 0.000000 0.000000 0.000000 -3.948650 -17.496362 -0.960920 -4.606248 29.065998 -0.936886 -4.574947 -10.610289 -2.355211 0.000000 0.000000 0.000000 -2.573039 -1.108576 5.977934 -1.508047 9.640797 -1.679016 -1.870882 -2.970772 0.165945 0.000000 0.000000 0.000000 
